# xmcd
#
# Track frame offsets:
#	182
#	25942
#	48757
#	70812
#	89172
#	107502
#	131980
#	151427
#	167640
#
# Disc length: 2259 seconds
#
# Revision: 1
# Processed by: cddbd v1.5.2PL0 Copyright (c) Steve Scherf et al.
# Submitted via: EasyCDDAExtractor 16.0.9.1
#
DISCID=7508d109
DTITLE=Luis Enrique - Amor De Medianoche
DYEAR=1987
DGENRE=Latin
TTITLE0=Amor De Medianoche
TTITLE1=La Mentira
TTITLE2=Hasta Cuando
TTITLE3=Ya Lo Se
TTITLE4=No Te Quites La Ropa
TTITLE5=Pregunta Por Ahi
TTITLE6=Llego El Amor
TTITLE7=Ya Veras
TTITLE8=Amor De Medianoche (Reprise)
EXTD=YEAR: 1993
EXTT0=
EXTT1=
EXTT2=
EXTT3=
EXTT4=
EXTT5=
EXTT6=
EXTT7=
EXTT8=
PLAYORDER=
